<?xml version="1.0" encoding="UTF-8" standalone="no"?> <svg width="64" height="64" viewBox="0 0 64 64" fill="none" xmlns="http://www.w3.org/2000/svg">
<path d="M29 48H6.00002V29H41C41.2652 29 41.5196 28.8947 41.7071 28.7071C41.8947 28.5196 42 28.2652 42 28V20C42 19.7348 41.8947 19.4804 41.7071 19.2929C41.5196 19.1054 41.2652 19 41 19H12.833L40.1 11.693C40.356 11.6243 40.5743 11.4569 40.7068 11.2273C40.8394 10.9978 40.8754 10.7251 40.807 10.469L38.739 2.74102C38.6703 2.48503 38.5029 2.26677 38.2733 2.1342C38.0438 2.00163 37.7711 1.9656 37.515 2.03402L2.74102 11.352C2.48503 11.4207 2.26677 11.5882 2.1342 11.8177C2.00163 12.0472 1.9656 12.32 2.03402 12.576C2.03402 12.576 4.00002 19.983 4.00002 20C4.00008 20.2652 4.10547 20.5195 4.29302 20.707L10.586 27H6.00002V26C6.00002 25.7348 5.89466 25.4804 5.70713 25.2929C5.51959 25.1054 5.26524 25 5.00002 25C4.7348 25 4.48045 25.1054 4.29291 25.2929C4.10538 25.4804 4.00002 25.7348 4.00002 26V49C4.00002 49.2652 4.10538 49.5196 4.29291 49.7071C4.48045 49.8947 4.7348 50 5.00002 50H29C29.2652 50 29.5196 49.8947 29.7071 49.7071C29.8947 49.5196 30 49.2652 30 49C30 48.7348 29.8947 48.4804 29.7071 48.2929C29.5196 48.1054 29.2652 48 29 48ZM31.586 27H27.414L21.414 21H25.586L31.586 27ZM28.414 21H32.586L38.586 27H34.414L28.414 21ZM24.586 27H20.414L14.414 21H18.586L24.586 27ZM40 25.586L35.414 21H40V25.586ZM24.7 13.751L20.671 14.831L24.91 7.48202L28.938 6.40002L24.7 13.751ZM31.671 5.67002L35.7 4.59102L31.457 11.939L27.428 13.019L31.671 5.67002ZM17.935 15.563L13.905 16.643L18.148 9.29402L22.177 8.21402L17.935 15.563ZM11.173 17.375L7.14402 18.454L11.387 11.105L15.415 10.026L11.173 17.375ZM34.19 11.207L37.432 5.59102L38.619 10.021L34.19 11.207ZM8.65402 11.837L5.41102 17.454L4.22502 13.024L8.65402 11.837ZM7.41402 21H11.586L17.586 27H13.414L7.41402 21Z" fill="black"/>
<path d="M29.447 37.1L19.447 32.1C19.2941 32.0236 19.1242 31.9876 18.9535 31.9956C18.7828 32.0035 18.617 32.0551 18.4718 32.1454C18.3267 32.2356 18.2072 32.3616 18.1246 32.5112C18.042 32.6608 17.9991 32.8291 18 33V43C17.9991 43.1709 18.042 43.3392 18.1246 43.4888C18.2072 43.6384 18.3267 43.7643 18.4718 43.8546C18.617 43.9449 18.7828 43.9964 18.9535 44.0044C19.1242 44.0123 19.2941 43.9764 19.447 43.9L29.447 38.9C29.6134 38.817 29.7534 38.6894 29.8513 38.5313C29.9491 38.3732 30.0009 38.1909 30.0009 38.005C30.0009 37.8191 29.9491 37.6368 29.8513 37.4787C29.7534 37.3206 29.6134 37.1929 29.447 37.11V37.1ZM20 41.382V34.618L26.764 38L20 41.382Z" fill="black"/>
<path d="M58 58C59.0609 58 60.0783 57.5786 60.8284 56.8284C61.5786 56.0783 62 55.0609 62 54C62 53.7348 61.8946 53.4804 61.7071 53.2929C61.5196 53.1054 61.2652 53 61 53C60.7348 53 60.4804 53.1054 60.2929 53.2929C60.1054 53.4804 60 53.7348 60 54C60 54.5304 59.7893 55.0391 59.4142 55.4142C59.0391 55.7893 58.5304 56 58 56H36C35.4696 56 34.9609 55.7893 34.5858 55.4142C34.2107 55.0391 34 54.5304 34 54V44C34 43.7348 33.8946 43.4804 33.7071 43.2929C33.5196 43.1054 33.2652 43 33 43C32.7348 43 32.4804 43.1054 32.2929 43.2929C32.1054 43.4804 32 43.7348 32 44V54C32 55.0609 32.4214 56.0783 33.1716 56.8284C33.9217 57.5786 34.9391 58 36 58H41V60H34C33.7348 60 33.4804 60.1054 33.2929 60.2929C33.1054 60.4804 33 60.7348 33 61C33 61.2652 33.1054 61.5196 33.2929 61.7071C33.4804 61.8946 33.7348 62 34 62H60C60.2652 62 60.5196 61.8946 60.7071 61.7071C60.8946 61.5196 61 61.2652 61 61C61 60.7348 60.8946 60.4804 60.7071 60.2929C60.5196 60.1054 60.2652 60 60 60H53V58H58ZM51 60H43V58H51V60Z" fill="black"/>
<path d="M58 36H56C55.4696 36 54.9609 35.7893 54.5858 35.4142C54.2107 35.0391 54 34.5304 54 34C54 32.9391 53.5786 31.9217 52.8284 31.1716C52.0783 30.4214 51.0609 30 50 30H44C42.9391 30 41.9217 30.4214 41.1716 31.1716C40.4214 31.9217 40 32.9391 40 34C40 34.5304 39.7893 35.0391 39.4142 35.4142C39.0391 35.7893 38.5304 36 38 36H36C34.9391 36 33.9217 36.4214 33.1716 37.1716C32.4214 37.9217 32 38.9391 32 40C32 40.2652 32.1054 40.5196 32.2929 40.7071C32.4804 40.8946 32.7348 41 33 41C33.2652 41 33.5196 40.8946 33.7071 40.7071C33.8946 40.5196 34 40.2652 34 40C34 39.4696 34.2107 38.9609 34.5858 38.5858C34.9609 38.2107 35.4696 38 36 38H38C39.0609 38 40.0783 37.5786 40.8284 36.8284C41.5786 36.0783 42 35.0609 42 34C42 33.4696 42.2107 32.9609 42.5858 32.5858C42.9609 32.2107 43.4696 32 44 32H50C50.5304 32 51.0391 32.2107 51.4142 32.5858C51.7893 32.9609 52 33.4696 52 34C52 35.0609 52.4214 36.0783 53.1716 36.8284C53.9217 37.5786 54.9391 38 56 38H58C58.5304 38 59.0391 38.2107 59.4142 38.5858C59.7893 38.9609 60 39.4696 60 40V50C60 50.2652 60.1054 50.5196 60.2929 50.7071C60.4804 50.8946 60.7348 51 61 51C61.2652 51 61.5196 50.8946 61.7071 50.7071C61.8946 50.5196 62 50.2652 62 50V40C62 38.9391 61.5786 37.9217 60.8284 37.1716C60.0783 36.4214 59.0609 36 58 36Z" fill="black"/>
<path d="M40 47C40 48.3845 40.4105 49.7378 41.1797 50.889C41.9489 52.0401 43.0421 52.9373 44.3212 53.4672C45.6003 53.997 47.0078 54.1356 48.3656 53.8655C49.7235 53.5954 50.9708 52.9287 51.9497 51.9497C52.9287 50.9708 53.5954 49.7235 53.8655 48.3656C54.1356 47.0078 53.997 45.6003 53.4672 44.3212C52.9373 43.0421 52.0401 41.9489 50.889 41.1797C49.7378 40.4105 48.3845 40 47 40C45.1441 40.0021 43.3649 40.7403 42.0526 42.0526C40.7403 43.3649 40.0021 45.1441 40 47V47ZM47 42C47.9889 42 48.9556 42.2932 49.7779 42.8427C50.6001 43.3921 51.241 44.173 51.6194 45.0866C51.9978 46.0002 52.0969 47.0055 51.9039 47.9755C51.711 48.9454 51.2348 49.8363 50.5355 50.5355C49.8363 51.2348 48.9454 51.711 47.9755 51.9039C47.0055 52.0969 46.0002 51.9978 45.0866 51.6194C44.173 51.241 43.3921 50.6001 42.8427 49.7779C42.2932 48.9556 42 47.9889 42 47C42.0016 45.6744 42.5289 44.4036 43.4662 43.4662C44.4036 42.5289 45.6744 42.0016 47 42V42Z" fill="black"/>
<path d="M47 50C47.5933 50 48.1734 49.8241 48.6667 49.4944C49.1601 49.1648 49.5446 48.6962 49.7716 48.148C49.9987 47.5999 50.0581 46.9967 49.9424 46.4147C49.8266 45.8328 49.5409 45.2982 49.1213 44.8787C48.7018 44.4591 48.1672 44.1734 47.5853 44.0576C47.0033 43.9419 46.4001 44.0013 45.852 44.2284C45.3038 44.4554 44.8352 44.8399 44.5056 45.3333C44.1759 45.8266 44 46.4067 44 47C44 47.7957 44.3161 48.5587 44.8787 49.1213C45.4413 49.6839 46.2044 50 47 50V50ZM47 46C47.1978 46 47.3911 46.0586 47.5556 46.1685C47.72 46.2784 47.8482 46.4346 47.9239 46.6173C47.9996 46.8 48.0194 47.0011 47.9808 47.1951C47.9422 47.3891 47.847 47.5673 47.7071 47.7071C47.5673 47.847 47.3891 47.9422 47.1951 47.9808C47.0011 48.0194 46.8 47.9996 46.6173 47.9239C46.4346 47.8482 46.2784 47.72 46.1685 47.5556C46.0586 47.3911 46 47.1978 46 47C46 46.7348 46.1054 46.4804 46.2929 46.2929C46.4804 46.1054 46.7348 46 47 46Z" fill="black"/>
<path d="M49 36C49.2652 36 49.5196 35.8946 49.7071 35.7071C49.8946 35.5196 50 35.2652 50 35C50 34.7348 49.8946 34.4804 49.7071 34.2929C49.5196 34.1054 49.2652 34 49 34H45C44.7348 34 44.4804 34.1054 44.2929 34.2929C44.1054 34.4804 44 34.7348 44 35C44 35.2652 44.1054 35.5196 44.2929 35.7071C44.4804 35.8946 44.7348 36 45 36H49Z" fill="black"/>
<path d="M38 54C38.5523 54 39 53.5523 39 53C39 52.4477 38.5523 52 38 52C37.4477 52 37 52.4477 37 53C37 53.5523 37.4477 54 38 54Z" fill="black"/>
<path d="M48 22H54C54.5799 21.9988 55.1471 21.8296 55.6329 21.5128C56.1186 21.196 56.5021 20.7452 56.737 20.215L59.757 20.97C59.9044 21.0069 60.0584 21.0098 60.2071 20.9783C60.3558 20.9468 60.4954 20.8818 60.6152 20.7883C60.735 20.6948 60.832 20.5752 60.8987 20.4386C60.9653 20.302 61 20.152 61 20V14C61 13.848 60.9653 13.698 60.8987 13.5614C60.832 13.4248 60.735 13.3052 60.6152 13.2117C60.4954 13.1181 60.3558 13.0532 60.2071 13.0217C60.0584 12.9902 59.9044 12.9931 59.757 13.03L56.737 13.785C56.5021 13.2548 56.1186 12.804 55.6329 12.4872C55.1471 12.1704 54.5799 12.0012 54 12H48C47.2044 12 46.4413 12.3161 45.8787 12.8787C45.3161 13.4413 45 14.2044 45 15V19C45 19.7956 45.3161 20.5587 45.8787 21.1213C46.4413 21.6839 47.2044 22 48 22ZM59 18.719L57 18.219V15.781L59 15.281V18.719ZM47 15C47 14.7348 47.1054 14.4804 47.2929 14.2929C47.4804 14.1054 47.7348 14 48 14H54C54.2652 14 54.5196 14.1054 54.7071 14.2929C54.8946 14.4804 55 14.7348 55 15V19C55 19.2652 54.8946 19.5196 54.7071 19.7071C54.5196 19.8946 54.2652 20 54 20H48C47.7348 20 47.4804 19.8946 47.2929 19.7071C47.1054 19.5196 47 19.2652 47 19V15Z" fill="black"/>
</svg>
