<?xml version="1.0" encoding="UTF-8"?>
<!DOCTYPE svg PUBLIC "-//W3C//DTD SVG 1.1//EN" "http://www.w3.org/Graphics/SVG/1.1/DTD/svg11.dtd">
<!-- Creator: CorelDRAW -->
<svg xmlns="http://www.w3.org/2000/svg" xml:space="preserve" width="1.70666in" height="1.70666in" version="1.1" style="shape-rendering:geometricPrecision; text-rendering:geometricPrecision; image-rendering:optimizeQuality; fill-rule:evenodd; clip-rule:evenodd"
viewBox="0 0 1706.66 1706.66"
 xmlns:xlink="http://www.w3.org/1999/xlink"
 xmlns:xodm="http://www.corel.com/coreldraw/odm/2003">
 <defs>
  <style type="text/css">
   <![CDATA[
    .fil0 {fill:black}
   ]]>
  </style>
 </defs>
 <g id="Layer_x0020_1">
  <metadata id="CorelCorpID_0Corel-Layer"/>
  <path class="fil0" d="M743.98 1706.63c-12.6,0 -22.85,-12.13 -19.3,-25.14l76.53 -288.06c0.69,-2.36 15.83,-57.08 63.05,-69.72 13.33,-5.42 150.83,-64.72 172.78,-168.19 -6.81,-27.22 -40.14,-87.5 -56.67,-113.75 -13.8,-21.96 19.34,-43.89 34.03,-21.25 0.19,0.29 59.81,98.64 62.78,131.81 12.36,68.61 2.64,153.89 -28.61,253.47 -0.83,2.78 -2.36,5.42 -4.31,7.5 -117.57,126.97 -218.53,75.15 -281.24,279.17 -2.64,8.61 -10.42,14.16 -19.03,14.16zm297.63 -466.94c-57.3,79.46 -159.72,120.6 -166.25,122.5 -25.28,6.25 -35.28,41.25 -35.41,41.67l-34.44 129.31c29.17,-29.17 61.11,-46.25 93.89,-63.75 36.67,-19.58 74.44,-39.72 112.36,-80 17.08,-55 27.08,-105.14 29.86,-149.72zm-12.08 160.14l0 0z"/>
  <path class="fil0" d="M743.98 1706.63c-8.19,0 -15.83,-5.14 -18.75,-13.19 -73.91,-205.09 -178.85,-156.7 -295.83,-279.58 -1.94,-2.08 -3.47,-4.44 -4.44,-7.08 -36.39,-99.44 -50.42,-184.72 -41.67,-253.33 0,-0.42 0.14,-0.69 0.14,-0.97 5.69,-41.53 55.97,-131.94 56.39,-132.92 11.01,-22.23 48.3,-4.3 34.72,19.72 -13.19,23.33 -45.42,87.5 -51.11,115.42 27.5,104.58 169.03,163.75 182.36,169.17 47.22,12.36 65,66.39 65.69,68.75l91.53 287.92c4.19,13.12 -5.87,26.11 -19.03,26.11zm-283.06 -317.64c75.5,76.02 147.75,81.36 212.91,142.92l-40.42 -127.22c-3.98,-9.88 -10.56,-32.34 -40.97,-43.06 -5.56,-2.08 -108.06,-42.22 -169.03,-120.69 5.28,43.89 17.78,93.47 37.5,148.05z"/>
  <path class="fil0" d="M1326.75 1706.63l-1165.55 0c-11.11,0 -20,-9.03 -20,-20 0,-168.89 120.97,-311.8 287.5,-339.86 26.11,-4.35 32.48,35.11 6.67,39.44 -138.33,23.33 -244.17,141.94 -253.47,280.42l1124.16 -0c-9.44,-145.56 -121.67,-265.28 -268.47,-282.64 -26.25,-3.04 -21.35,-42.93 4.72,-39.72 173.61,20.42 304.44,167.64 304.44,342.36 0,10.97 -9.03,20 -20,20z"/>
  <path class="fil0" d="M727.59 1234.68c-170.97,0 -310.14,-139.17 -310.14,-310.14l0 -227.49c0,-26.36 40,-26.36 40,0l0 227.5c0,149.03 121.25,270.14 270.14,270.14 149.02,0 270.13,-121.25 270.13,-270.14l0 -227.5c0,-26.33 40,-26.33 40,0l0 227.5c0.14,170.97 -139.03,310.13 -310.14,310.13z"/>
  <path class="fil0" d="M566.76 1347.74c-12.98,0 -22.76,-12.41 -19.44,-25.14l36.94 -140.97c6.65,-25.47 45.41,-15.41 38.75,10.14l-36.94 140.97c-2.36,9.03 -10.42,15 -19.31,15z"/>
  <path class="fil0" d="M892.44 1347.74c-8.89,0 -16.94,-5.97 -19.31,-15l-37.36 -142.64c-6.67,-25.54 32.1,-35.61 38.75,-10.14l37.36 142.64c3.32,12.73 -6.46,25.14 -19.44,25.14z"/>
  <path class="fil0" d="M493.84 1575.65c-11.11,0 -20,-9.03 -20,-20l0 -112.5c0,-26.33 40,-26.33 40,0l0 112.5c0,10.97 -9.03,20 -20,20z"/>
  <path class="fil0" d="M525.23 1575.65l-62.92 0c-26.33,0 -26.33,-40 0,-40l62.92 0c26.33,0 26.33,40 0,40z"/>
  <path class="fil0" d="M994.11 1565.79c-10.97,0 -20,-9.03 -20,-20l0 -112.5c0,-26.3 40,-26.3 40,0l0 112.5c0,11.11 -8.89,20 -20,20z"/>
  <path class="fil0" d="M1025.5 1565.79l-62.92 0c-26.3,0 -26.3,-40 0,-40l62.92 0c26.24,0 26.39,40 0,40z"/>
  <path class="fil0" d="M593.56 344.13c-42.38,0 -15.93,-115.13 -13.06,-120.56 28.71,-54.36 68.39,-146.83 95.7,-196.39 11.37,-20.64 42.71,-41.19 67.78,-14.44 7.92,8.47 34.86,13.47 52.36,14.44 105.83,-27.5 217.64,106.25 222.5,112.09 16.81,20.14 -13.85,45.95 -30.83,25.56 -28.19,-34.03 -116.11,-118.06 -183.74,-98.19 -10.93,3.06 -65.84,-3.06 -88.19,-25.28 -1.67,1.53 -3.75,3.75 -5.14,5.97l-93.47 192.08c-2.22,8.47 -12.08,49.86 -4.44,79.72 3.2,12.43 -5.78,25 -19.45,25z"/>
  <path class="fil0" d="M447.17 573.3c-24.18,0 -27.43,-35.87 -3.19,-39.72 62.92,-10.42 72.64,-82.64 73.89,-95.83 -6.39,-45.28 23.75,-80.83 29.31,-87.08l76.25 -97.08c16.14,-20.64 47.63,4.11 31.39,24.72l-78.2 99.3c-0.14,0.14 -24.31,26.11 -19.17,55.97 0.28,1.53 0.28,3.06 0.28,4.58 -2.36,40.97 -27.78,121.81 -107.5,134.86 -0.84,0.28 -1.95,0.28 -3.06,0.28z"/>
  <path class="fil0" d="M727.73 759.27c-94.58,0 -189.17,-8.06 -240.97,-24.03 -231.67,-68.33 -241.8,-205.42 -242.08,-211.11 -1.67,-67.89 36.19,-133.28 102.22,-72.92 50.24,45.93 130.27,37.57 167.78,35.28 22.5,-1.37 36.3,37.43 -4.72,40.55 -171,13.04 -195.63,-65.16 -211.39,-59.17 -6.11,2.64 -13.61,28.61 -13.75,55.14 0.28,3.33 10.83,114.17 213.61,173.89 96.53,29.86 362.08,29.86 458.47,0.14 203.06,-59.86 213.61,-170.56 214.03,-175.28 -0.14,-25.14 -7.64,-51.25 -13.75,-53.89 -15.2,-5.82 -42.72,72.46 -211.25,59.17 -15.73,-1.24 -25.83,2.18 -32.91,-10.28 -5.42,-9.58 -2.22,-21.81 7.5,-27.22 20.76,-11.71 123.27,21.33 188.47,-38.2 67.06,-61.22 104.15,7.63 102.22,71.81 -0.42,6.94 -10.42,144.03 -242.36,212.36 -52.23,15.83 -146.67,23.75 -241.11,23.75zm212.22 -235.14c0,0 0,0 0,0z"/>
  <path class="fil0" d="M1003.42 594.13c-22.5,0 -59.03,-12.22 -91.39,-78.61 -41.01,-84.23 -54.11,-68.05 -64.17,-79.03 -4.16,-4.58 -6.11,-10.83 -5,-17.08 3.19,-18.06 8.74,-86.94 -21.67,-93.33 -25.9,-5.37 -17.57,-44.5 8.06,-39.17 52.63,10.97 59.86,76.53 55.13,123.33 16.25,10.56 37.78,34.86 63.47,87.64 45.76,93.89 70.89,32.16 86.53,65.28 7.06,14.96 -3.78,30.97 -30.97,30.97zm-139.03 -151.11c0,0 0,0 0,0z"/>
  <path class="fil0" d="M783.42 389.55c-15.68,0 -25.72,-17.75 -16.53,-31.25l75.83 -111.53 2.08 -62.78c0.93,-26.21 40.91,-25 40,1.39 -0.62,17.77 0.49,70.07 -5.69,79.17l-79.02 116.39c-3.89,5.56 -10.28,8.62 -16.67,8.62z"/>
  <path class="fil0" d="M909.67 210.94c-95.83,0 -138.74,-67.08 -140.83,-70.42 -13.76,-22.13 19.56,-43.52 33.89,-21.11 2.08,3.19 48.33,73.06 157.22,44.86 5.47,-1.39 17.34,-0.19 25,-4.44 0,-0.02 -6.88,-19.53 11.25,-26.39 24.61,-9.31 37.82,26.91 22.64,48.61 -13.06,18.61 -40.97,21.11 -51.25,21.39 -21.11,5.27 -40.42,7.5 -57.92,7.5z"/>
  <path class="fil0" d="M566.34 633.02c-30.17,0 -27.33,-40.72 -0.97,-40 28.06,0.83 55.14,-58.75 63.61,-87.92 7.28,-25.11 45.53,-14.36 38.33,11.11 -3.33,12.08 -35.56,116.81 -100.97,116.81z"/>
  <path class="fil0" d="M901.47 663.3c-65.41,0 -97.63,-104.72 -101.11,-116.94 -7.26,-25.3 31.02,-36.34 38.33,-11.11 8.47,29.17 34.86,88.61 63.61,87.92 26.38,-1.15 29.18,40.14 -0.83,40.14z"/>
  <path class="fil0" d="M1420.22 1706.63l-93.47 0c-10.97,0 -20,-9.03 -20,-20l0 -299.58c0,-10.97 9.03,-20 20,-20l93.47 0c10.97,0 20,9.03 20,20l0 299.58c0,10.97 -9.03,20 -20,20zm-73.47 -40l53.47 0 0 -259.58 -53.47 0 0 259.58z"/>
  <path class="fil0" d="M1422.58 1407.04l-98.33 0c-28.33,0 -51.53,-23.06 -51.53,-51.53l0 -129.72c0,-10.97 9.03,-20 20,-20l161.25 0c10.97,0 20,9.03 20,20l0 129.72c0.14,28.47 -23.06,51.53 -51.39,51.53zm-109.72 -161.25l0 109.72c0,6.25 5.28,11.53 11.53,11.53l98.33 0c6.39,0 11.53,-5.14 11.53,-11.53l0 -109.72 -121.39 0z"/>
  <path class="fil0" d="M1408.28 1246.07c-34.11,0 -29.99,-27.05 -20.14,-35.42 64.44,-55.14 14.86,-158.61 14.44,-159.58 -10.28,-18.33 -13.06,-48.47 -12.64,-78.75 -17.08,26.53 -26.39,61.67 -5.56,172.36 4.09,22.2 -26.69,44.67 -71.39,-14.58 18.18,86.32 60.53,74.38 50.28,102.5 -3.33,9.03 -12.36,14.44 -21.67,13.06 -192.47,-29.63 -165.85,-389.38 -62.08,-477.35 16.67,-14.13 41.01,5.32 30.56,24.72 -22.08,41.11 -24.31,78.19 -19.58,107.36 10.56,-48.89 32.5,-106.66 78.06,-127.36 47.92,-21.81 55.56,-106.81 54.58,-137.64 -0.64,-20.68 26.89,-28.82 37.22,-10.69 78.33,137.08 62.5,206.8 43.61,272.08 54.63,-46.95 64.53,-8.68 60.42,3.33 -32.06,93.7 -10.22,345.96 -156.11,345.96zm10.97 -386.11c12.22,0 21.82,11.42 19.72,23.47 -7.78,44.44 -15,124.17 -1.11,148.89 2.5,5 40.56,83.89 14.58,154.03 41.8,-44.24 47.98,-158.06 61.25,-241.81 -35.52,46.8 -16.02,86.03 -47.22,86.25 -10.14,-0.14 -18.61,-8.06 -19.44,-18.19 -10.63,-121.42 70.53,-161.15 9.03,-307.36 -8.75,39.72 -28.19,84.86 -70.97,104.31 -48.75,22.22 -63.06,129.02 -64.44,168.33 -0.63,18.39 -24,26.44 -35.69,11.67 -1.81,-2.22 -25.83,-33.61 -34.03,-82.22 -18.19,74.3 -21.4,192.67 30.14,258.75 -10.28,-30.69 -16.81,-72.64 -12.92,-128.75 1.53,-21.39 31.53,-25.76 38.75,-5.28 6.39,18.19 16.81,40.97 28.47,60 -17.31,-148.14 38.26,-134.36 64.44,-217.64 2.92,-8.76 10.84,-14.46 19.45,-14.46z"/>
 </g>
</svg>
