<?xml version="1.0" encoding="UTF-8"?>
<svg xmlns="http://www.w3.org/2000/svg" xmlns:xlink="http://www.w3.org/1999/xlink" width="365pt" height="365pt" viewBox="0 0 365 365" version="1.1">
<g id="surface1">
<path style=" stroke:none;fill-rule:nonzero;fill:rgb(0.799561%,0.799561%,0.799561%);fill-opacity:1;" d="M 365 182.5 C 365 283.292969 283.292969 365 182.5 365 C 81.707031 365 0 283.292969 0 182.5 C 0 81.707031 81.707031 0 182.5 0 C 283.292969 0 365 81.707031 365 182.5 "/>
<path style=" stroke:none;fill-rule:nonzero;fill:rgb(27.099609%,27.49939%,27.49939%);fill-opacity:1;" d="M 323.53125 103.253906 L 38.515625 162.039063 L 38.515625 246.023438 L 254.269531 233.914063 L 323.53125 103.253906 "/>
<path style=" stroke:none;fill-rule:nonzero;fill:rgb(38.798523%,68.598938%,88.198853%);fill-opacity:1;" d="M 86.140625 303.660156 L 141.078125 302.609375 L 187.417969 220.347656 L 244.824219 309.671875 L 312.1875 287.699219 L 221.378906 179.402344 L 296.199219 59.679688 L 243.835938 59.480469 L 186.925781 139.117188 L 125.339844 64.675781 L 68.488281 65.308594 L 149.652344 185.375 L 86.140625 303.660156 "/>
</g>
</svg>
